<?xml version="1.0" encoding="utf-8"?>
<!-- Generator: Adobe Illustrator 16.0.4, SVG Export Plug-In . SVG Version: 6.00 Build 0)  -->
<!DOCTYPE svg PUBLIC "-//W3C//DTD SVG 1.1//EN" "http://www.w3.org/Graphics/SVG/1.1/DTD/svg11.dtd">
<svg version="1.1" id="Layer_1" xmlns="http://www.w3.org/2000/svg" xmlns:xlink="http://www.w3.org/1999/xlink" x="0px" y="0px"
	 width="808px" height="451px" viewBox="0 0 808 451" enable-background="new 0 0 808 451" xml:space="preserve">
<ellipse fill="#FFFFFF" stroke="#F9B625" stroke-width="20" cx="404" cy="225.5" rx="394" ry="215.5"/>
<g>
	<path fill="#0089C6" d="M164.9609375,276.2460938c0-19.3046875,0-38.609375,0-57.9140625
		c11.0498047-0.7128906,22.0986328-1.2167969,33.1484375-1.5400391c0,3.9501953,0,7.9013672,0,11.8525391
		c-6.5209961,0.1914062-13.0415039,0.4453125-19.5620117,0.7675781c0,3.5009766,0,7.0029297,0,10.5029297
		c5.1074219-0.2519531,10.2143555-0.4628906,15.3217773-0.6337891c0,3.7910156,0,7.5810547,0,11.3720703
		c-5.1074219,0.1708984-10.2143555,0.3818359-15.3217773,0.6337891c0,8.0615234,0,16.1240234,0,24.1855469
		C174.0180664,275.6972656,169.4897461,275.953125,164.9609375,276.2460938z"/>
	<path fill="#0089C6" d="M221.6333008,246.3310547c-1.2529297-0.5683594-2.3129883-0.8476562-3.5654297-0.8349609
		c-1.9277344,0.0214844-3.7583008,1.5878906-5.2998047,4.5986328c0,8.0947266,0,16.1894531,0,24.2832031
		c-4.3686523,0.0683594-8.7368164,0.1611328-13.1054688,0.2832031c0-13.6835938,0-27.3662109,0-41.0498047
		c3.9189453-0.109375,7.8374023-0.1953125,11.7563477-0.2607422c0,2.9882812,0,5.9746094,0,8.9619141
		c0.0639648-0.0009766,0.1279297-0.0029297,0.1923828-0.0039062c3.1801758-6.7011719,6.0712891-10.109375,9.3476562-10.1367188
		c1.6376953-0.0136719,3.1791992,0.4589844,4.8178711,1.3193359
		C224.3955078,237.7695312,223.0146484,242.0488281,221.6333008,246.3310547z"/>
	<path fill="#0089C6" d="M233.0986328,215.4638672c3.5654297,0.0068359,6.456543,2.8242188,6.456543,6.4863281
		c0,3.6611328-2.8911133,6.4326172-6.456543,6.4267578c-3.6611328-0.0078125-6.5522461-2.8857422-6.6489258-6.4511719
		C226.449707,218.2626953,229.3408203,215.4570312,233.0986328,215.4638672z M226.449707,274.25
		c0-13.6835938,0-27.3662109,0-41.0498047c4.3686523-0.015625,8.7368164-0.0068359,13.1054688,0.0244141
		c0,13.6835938,0,27.3671875,0,41.0498047C235.1865234,274.2431641,230.8183594,274.234375,226.449707,274.25z"/>
	<path fill="#0089C6" d="M258.921875,257.9755859c1.0595703,5.1308594,4.4326172,8.0898438,9.7324219,8.2363281
		c3.0834961,0.0849609,5.6850586-0.9931641,8.6728516-3.1113281c1.9916992,2.4423828,3.9824219,4.8876953,5.9741211,7.3369141
		c-4.7216797,3.9736328-10.3110352,5.8134766-16.5742188,5.6455078
		c-13.1049805-0.3427734-21.6811523-8.9794922-21.6811523-21.8974609c0-12.7167969,8.5761719-21.8955078,20.5249023-21.5898438
		c11.081543,0.2841797,19.0795898,8.7949219,19.0795898,21.1240234c0,1.6699219,0,3.3408203,0,5.0107422
		C276.0737305,258.4130859,267.4980469,258.1572266,258.921875,257.9755859z M265.2822266,242.6103516
		c-3.5664062-0.0908203-5.9750977,2.8476562-6.3603516,8.1386719c4.2080078,0.0898438,8.4160156,0.1953125,12.6235352,0.3183594
		C271.4492188,245.6689453,269.3291016,242.7128906,265.2822266,242.6103516z"/>
	<path fill="#0089C6" d="M315.7753906,276.6992188c0-7.7070312,0-15.4189453,0-23.1269531
		c0-5.6855469-1.4453125-8.2675781-5.6855469-8.4794922c-2.6015625-0.1289062-4.9145508,1.4013672-6.5522461,4.5039062
		c0,8.8339844,0,17.6679688,0,26.5009766c-4.3686523-0.2050781-8.7373047-0.3945312-13.1054688-0.5693359
		c0-13.6845703,0-27.3662109,0-41.0498047c4.046875,0.1621094,8.0942383,0.3369141,12.1416016,0.5234375
		c0,2.1513672,0,4.3046875,0,6.4560547c0.0639648,0.0039062,0.1289062,0.0058594,0.1928711,0.0087891
		c2.4086914-4.7070312,6.8413086-7.1962891,12.3339844-6.9130859c8.3833008,0.4326172,13.7797852,7.3964844,13.7797852,18.7666016
		c0,8.0292969,0,16.0585938,0,24.0898438C324.5117188,277.1621094,320.144043,276.9248047,315.7753906,276.6992188z"/>
	<path fill="#0089C6" d="M352.4873047,280.1748047c-10.7924805-0.6806641-18.4052734-9.8857422-18.4052734-23.3759766
		c0-12.046875,8.0947266-20.734375,18.5981445-20.0703125c3.8544922,0.2431641,7.5161133,2.2128906,10.9853516,5.8115234
		c0.0639648,0.0048828,0.128418,0.0087891,0.1928711,0.0126953c0-8.8974609,0-17.7949219,0-26.6923828
		c4.3686523,0.2861328,8.7363281,0.5742188,13.1049805,0.8662109c0,21.2314453,0,42.4648438,0,63.6962891
		c-3.918457-0.2617188-7.8374023-0.5224609-11.7558594-0.7792969c0-1.7978516,0-3.5966797,0-5.3964844
		C361.6420898,278.5429688,357.4985352,280.4921875,352.4873047,280.1748047z M356.1494141,247.9335938
		c-4.8178711-0.3076172-8.190918,3.6289062-8.190918,10.0849609c0,6.5537109,3.2763672,10.8027344,8.190918,11.1152344
		c4.6254883,0.2949219,8.190918-3.8066406,8.190918-10.0712891
		C364.340332,252.703125,360.8706055,248.2353516,356.1494141,247.9335938z"/>
	<path fill="#0089C6" d="M399.4150391,250.1367188c-2.6025391-0.1757812-4.0473633,0.7871094-4.0473633,2.5214844
		c0,2.4091797,2.3129883,2.9511719,6.3588867,4.7675781c8.5771484,3.7587891,12.8164062,6.9316406,12.8164062,14.0625
		c0,7.6132812-6.359375,12.390625-16.6699219,11.6933594c-7.034668-0.4775391-12.8164062-3.4707031-16.2856445-8.2324219
		c1.9589844-2.0517578,3.9189453-4.1035156,5.8779297-6.15625c2.987793,3.0927734,6.6489258,4.7861328,10.215332,5.0283203
		c2.5048828,0.1699219,3.7578125-0.5166016,3.7578125-1.8652344c-0.0009766-2.0234375-1.8310547-2.5332031-5.2036133-3.9179688
		c-9.347168-3.8125-13.684082-8.1523438-13.684082-15.2832031c0-8.3828125,6.6489258-13.6210938,16.3818359-12.9609375
		c4.9150391,0.3330078,9.6357422,1.9052734,14.7441406,4.8486328c-1.2207031,3.1943359-2.4423828,6.3896484-3.6621094,9.5830078
		C406.0634766,251.6494141,402.4023438,250.3388672,399.4150391,250.1367188z"/>
	<path fill="#F9B625" d="M442.9023438,285.8398438c-9.6640625-0.6044922-16.1308594-7.7265625-16.1308594-17.7578125
		c0-10.0380859,6.4667969-16.3720703,16.1308594-15.7675781c9.6640625,0.6015625,16.2060547,7.7392578,16.2060547,17.7753906
		C459.1083984,280.0498047,452.5664062,286.4414062,442.9023438,285.8398438z M442.9023438,261.234375
		c-3.9394531-0.2451172-5.4257812,2.4824219-5.4257812,7.5380859c0,5.0537109,1.5605469,7.9785156,5.4257812,8.2207031
		c3.9394531,0.2441406,5.5009766-2.4882812,5.5009766-7.5390625
		C448.4033203,264.3974609,446.8417969,261.4775391,442.9023438,261.234375z"/>
	<path fill="#F9B625" d="M481.7792969,246.484375c-1.5605469-0.9697266-2.9736328-1.4873047-4.3857422-1.5605469
		c-2.2304688-0.1142578-2.8994141,1.1875-2.8994141,3.9384766c0,2.03125,0,4.0644531,0,6.0947266
		c2.5273438,0.1328125,5.0556641,0.2626953,7.5830078,0.3876953c0,1.8330078,0,3.6660156,0,5.5
		c-2.5273438-0.125-5.0556641-0.2548828-7.5830078-0.3867188c0,8.7216797,0,17.4453125,0,26.1669922
		c-3.3701172-0.1777344-6.7392578-0.3603516-10.109375-0.5498047c0-8.7226562,0-17.4453125,0-26.1669922
		c-1.2148438-0.0693359-2.4277344-0.1367188-3.6425781-0.2070312c0-1.8339844,0-3.6679688,0-5.5
		c1.2148438,0.0703125,2.4277344,0.1376953,3.6425781,0.2060547c0-2.2548828,0-4.5097656,0-6.7646484
		c0-7.359375,3.7919922-11.0800781,10.7783203-10.7138672c3.9394531,0.2070312,7.5830078,1.9472656,9.7392578,4.578125
		C483.8613281,243.1660156,482.8212891,244.8261719,481.7792969,246.484375z"/>
	<path fill="#0089C6" d="M132.3515625,344.5341797c0-6.21875,0-12.4375,0-18.6582031
		c-4.0888672,0.4277344-8.1767578,0.8876953-12.265625,1.3818359c0,6.2197266,0,12.4394531,0,18.6591797
		c-3.4931641,0.4228516-6.987793,0.8691406-10.480957,1.3427734c0-14.8925781,0-29.7841797,0-44.6767578
		c3.4931641-0.4736328,6.987793-0.921875,10.480957-1.3427734c0,5.7480469,0,11.4980469,0,17.2470703
		c4.0888672-0.4951172,8.1767578-0.9550781,12.265625-1.3818359c0-5.7490234,0-11.4990234,0-17.2470703
		c3.46875-0.3623047,6.9384766-0.7021484,10.4072266-1.0166016c0,14.8916016,0,29.7832031,0,44.6767578
		C139.2900391,343.8339844,135.8203125,344.1728516,132.3515625,344.5341797z"/>
	<path fill="#0089C6" d="M162.828125,342.9746094c-9.6630859,0.6494141-16.1303711-5.4511719-16.1303711-15.4912109
		c0-10.0302734,6.4672852-17.3847656,16.1303711-18.0351562c9.6640625-0.6435547,16.2060547,5.8330078,16.2060547,15.8642578
		C179.0341797,335.2773438,172.4921875,342.3310547,162.828125,342.9746094z M162.828125,318.3691406
		c-3.9394531,0.265625-5.4267578,3.2080078-5.4267578,8.2607422c0,5.0566406,1.5610352,7.7597656,5.4267578,7.4980469
		c3.9399414-0.2617188,5.5014648-3.1728516,5.5014648-8.2294922
		C168.3295898,320.8447266,166.7680664,318.1064453,162.828125,318.3691406z"/>
	<path fill="#0089C6" d="M201.3334961,340.1640625c0-5.9472656,0-11.8935547,0-17.8408203
		c0-4.3837891-1.1142578-6.2929688-4.3852539-6.1943359c-2.0068359,0.0605469-3.7915039,1.3847656-5.0551758,3.8837891
		c0,6.8134766,0,13.6259766,0,20.4423828c-3.3696289,0.1191406-6.7397461,0.2568359-10.109375,0.4101562
		c0-10.5556641,0-21.1113281,0-31.6669922c3.1220703-0.1445312,6.2436523-0.2705078,9.3657227-0.3847656
		c0,1.6611328,0,3.3203125,0,4.9804688c0.0498047-0.0009766,0.0996094-0.0039062,0.1489258-0.0058594
		c1.8583984-3.7832031,5.277832-5.9824219,9.515625-6.0947266c6.4667969-0.171875,10.6293945,4.9013672,10.6293945,13.6689453
		c0,6.1972656,0,12.390625,0,18.5849609C208.0732422,340.0048828,204.7041016,340.0751953,201.3334961,340.1640625z"/>
	<path fill="#0089C6" d="M229.6552734,340.8320312c-8.3256836,0.0068359-14.1982422-6.6660156-14.1982422-17.0742188
		c0-9.2900391,6.2436523-16.4482422,14.3466797-16.4521484c2.9736328-0.0009766,5.7978516,1.3457031,8.4741211,3.9619141
		c0.0493164,0,0.0991211,0.0009766,0.1489258,0.0009766c0-6.8623047,0-13.7255859,0-20.5898438
		c3.3701172,0.0205078,6.7397461,0.0537109,10.1098633,0.1015625c0,16.3769531,0,32.7568359,0,49.1357422
		c-3.0229492-0.0419922-6.0463867-0.0732422-9.0693359-0.0947266c0-1.3876953,0-2.7753906,0-4.1630859
		C236.7167969,339.1308594,233.5205078,340.8291016,229.6552734,340.8320312z M232.4799805,315.7822266
		c-3.7167969-0.0058594-6.3193359,3.2021484-6.3193359,8.1826172c0,5.0556641,2.527832,8.1650391,6.3193359,8.1708984
		c3.5683594,0.0039062,6.3183594-3.3193359,6.3183594-8.1533203
		C238.7983398,319.0771484,236.1220703,315.7880859,232.4799805,315.7822266z"/>
	<path fill="#0089C6" d="M263.4033203,308.53125c0,5.9726562,0,11.9443359,0,17.9160156
		c0,4.3134766,0.9663086,6.2646484,4.0878906,6.3476562c2.3051758,0.0625,4.0141602-1.0761719,5.277832-3.4921875
		c0-6.8398438,0-13.6767578,0-20.5175781c3.3706055,0.1025391,6.7397461,0.2138672,10.1103516,0.3349609
		c0,10.5566406,0,21.1123047,0,31.6679688c-3.1225586-0.1113281-6.2441406-0.2158203-9.3662109-0.3115234
		c0-1.6611328,0-3.3203125,0-4.9804688c-0.0249023-0.0009766-0.0498047-0.0009766-0.074707-0.0029297
		c-2.1557617,3.875-5.277832,5.640625-9.6640625,5.53125c-6.5410156-0.1572266-10.4814453-5.2685547-10.4814453-14.1191406
		c0-6.1933594,0-12.3867188,0-18.5839844C256.6635742,308.3808594,260.0332031,308.4492188,263.4033203,308.53125z"/>
	<path fill="#0089C6" d="M305.1040039,320.1611328c-0.9663086-0.4921875-1.7836914-0.7539062-2.75-0.7978516
		c-1.4868164-0.0673828-2.8989258,1.0566406-4.0888672,3.3095703c0,6.2451172,0,12.4882812,0,18.7324219
		c-3.3696289-0.1474609-6.7397461-0.2890625-10.109375-0.4189453c0-10.5556641,0-21.1113281,0-31.6669922
		c3.0229492,0.1162109,6.0458984,0.2412109,9.0688477,0.3730469c0,2.3046875,0,4.6083984,0,6.9140625
		c0.0493164,0.0009766,0.0991211,0.0039062,0.1484375,0.0058594c2.453125-5.0205078,4.6835938-7.5224609,7.2109375-7.4033203
		c1.2631836,0.0576172,2.453125,0.4873047,3.7172852,1.21875
		C307.2353516,313.671875,306.1699219,316.9160156,305.1040039,320.1611328z"/>
	<path fill="#0089C6" d="M328.1699219,342.9169922c0-1.5361328,0-3.0732422,0-4.6083984
		c-0.0742188-0.0029297-0.1484375-0.0087891-0.2231445-0.0126953c-2.5268555,3.6503906-5.5004883,5.34375-9.2919922,5.1425781
		c-6.4672852-0.3408203-10.6298828-4.7021484-10.6298828-10.6484375c0-6.3173828,5.5009766-10.1494141,14.3466797-9.6689453
		c1.4873047,0.0800781,3.1225586,0.3173828,5.2041016,0.734375c0-0.6943359,0-1.3896484,0-2.0830078
		c0-1.9326172-1.784668-3.2246094-5.2783203-3.4130859c-2.6015625-0.1416016-5.277832,0.6083984-7.8051758,2.2636719
		c-1.7099609-2.0947266-3.4189453-4.1875-5.1289062-6.2792969c3.4189453-3.0283203,8.1025391-4.4990234,13.4550781-4.2070312
		c9.737793,0.5322266,14.8666992,5.3828125,14.8666992,14.1513672c0,6.3945312,0,12.7871094,0,19.1787109
		C334.5131836,343.2802734,331.3417969,343.0957031,328.1699219,342.9169922z M323.5615234,328.015625
		c-2.8989258-0.1572266-4.8320312,1.3769531-4.8320312,3.8300781c0,2.3046875,1.7094727,3.9560547,3.6420898,4.0615234
		c2.9736328,0.1611328,4.8320312-2.2607422,5.2041016-6.9980469
		C326.3120117,328.3925781,324.9741211,328.0947266,323.5615234,328.015625z"/>
	<path fill="#0089C6" d="M362.1416016,344.9912109c0-5.9462891,0-11.8935547,0-17.8408203
		c0-4.3837891-1.1142578-6.390625-4.3852539-6.6005859c-2.0073242-0.1279297-3.7915039,1.0214844-5.0556641,3.3955078
		c0,6.8134766,0,13.6279297,0,20.4423828c-3.3696289-0.2119141-6.7397461-0.4208984-10.109375-0.625
		c0-10.5576172,0-21.1132812,0-31.6679688c3.1225586,0.1884766,6.2441406,0.3818359,9.3662109,0.5791016
		c0,1.6601562,0,3.3193359,0,4.9804688c0.0493164,0.0029297,0.0996094,0.0058594,0.1489258,0.0087891
		c1.8583984-3.5996094,5.277832-5.4638672,9.5151367-5.1894531c6.4672852,0.4179688,10.6298828,5.8261719,10.6298828,14.5986328
		c0,6.1933594,0,12.3886719,0,18.5839844C368.8813477,345.4326172,365.5117188,345.2109375,362.1416016,344.9912109z"/>
	<path fill="#0089C6" d="M412.7412109,361.2744141c-7.7099609-0.5175781-13.3955078-3.7939453-19.1772461-10.2558594
		c-3.9506836-4.4130859-7.1303711-12.6240234-7.1303711-21.4912109c0-10.40625,4.4326172-19.3574219,12.1416016-24.6152344
		c4.5292969-3.0673828,9.7324219-4.5439453,15.1289062-4.1835938c5.4921875,0.3662109,10.6005859,2.1503906,15.8037109,5.5722656
		c-1.4140625,4.0839844-2.8271484,8.1679688-4.2402344,12.2509766c-3.8544922-2.2763672-7.3232422-3.5683594-10.9853516-3.8134766
		c-7.6123047-0.5107422-12.9121094,5.4902344-12.9121094,15.7050781
		c-0.0009766,10.1162109,5.6855469,17.1533203,13.2978516,17.6611328c4.3359375,0.2910156,8.1904297-0.9941406,12.6230469-3.7900391
		c0.9316406,4.0439453,1.8623047,8.0878906,2.7939453,12.1318359
		C424.9794922,360.1630859,419.4853516,361.7255859,412.7412109,361.2744141z"/>
	<path fill="#0089C6" d="M460.0537109,362.9189453c0-7.6777344,0-15.3535156,0-23.03125
		c0-5.5888672-1.734375-8.3857422-5.6855469-8.6201172c-2.7949219-0.1660156-4.8183594,1.2539062-6.5527344,4.4248047
		c0,8.8320312,0,17.6669922,0,26.4990234c-4.3681641-0.2675781-8.7373047-0.5410156-13.1044922-0.8212891
		c0-21.2314453,0-42.4648438,0-63.6962891c4.3671875,0.2802734,8.7363281,0.5537109,13.1044922,0.8212891
		c0,9.3476562,0,18.6953125,0,28.0429688c2.8916016-3.390625,7.2265625-6.0205078,11.9492188-5.7470703
		c8.5761719,0.4931641,13.3935547,7.0996094,13.3935547,19.0517578c0,7.9335938,0,15.8681641,0,23.8017578
		C468.7910156,363.4130859,464.421875,363.1699219,460.0537109,362.9189453z"/>
	<path fill="#0089C6" d="M488.09375,305.6103516c3.5654297,0.1669922,6.4570312,3.0859375,6.4570312,6.7480469
		s-2.8916016,6.3320312-6.4570312,6.1640625c-3.6621094-0.171875-6.5517578-3.2080078-6.6494141-6.7753906
		C481.4443359,308.0830078,484.3359375,305.4345703,488.09375,305.6103516z M481.4443359,364.0712891
		c0-13.6835938,0-27.3681641,0-41.0498047c4.3691406,0.2148438,8.7373047,0.4208984,13.1064453,0.6113281
		c0,13.6835938,0,27.3671875,0,41.0498047C490.1816406,364.4921875,485.8134766,364.2871094,481.4443359,364.0712891z"/>
	<path fill="#0089C6" d="M503.1240234,365.0410156c0-21.2324219,0-42.4648438,0-63.6962891
		c4.3681641,0.171875,8.7373047,0.328125,13.1044922,0.4677734c0,21.2324219,0,42.4628906,0,63.6962891
		C511.8613281,365.3691406,507.4921875,365.2128906,503.1240234,365.0410156z"/>
	<path fill="#0089C6" d="M540.2236328,367.4414062c-10.7929688-0.1777344-18.4052734-9.1875-18.4052734-22.6748047
		c0-12.0478516,8.09375-20.9511719,18.5966797-20.7802734c3.8544922,0.0625,7.5166016,1.8417969,10.9853516,5.2412109
		c0.0654297,0,0.1289062,0,0.1933594,0c0-8.8964844,0-17.7949219,0-26.6914062
		c4.3681641,0.0322266,8.7373047,0.046875,13.1044922,0.0351562c0,21.2314453,0,42.4638672,0,63.6962891
		c-3.9179688,0.0087891-7.8378906,0.0019531-11.7558594-0.0253906c0-1.7988281,0-3.5966797,0-5.3964844
		C549.3769531,365.3476562,545.2333984,367.5244141,540.2236328,367.4414062z M543.8837891,335.0224609
		c-4.8173828-0.0644531-8.1904297,4.0078125-8.1904297,10.4648438c0,6.5517578,3.2763672,10.6679688,8.1904297,10.7363281
		c4.6259766,0.0644531,8.1914062-4.2509766,8.1914062-10.5126953
		C552.0751953,339.3496094,548.6064453,335.0878906,543.8837891,335.0224609z"/>
	<path fill="#0089C6" d="M595.0517578,337.8330078c-1.2529297-0.5390625-2.3125-0.796875-3.5644531-0.7646484
		c-1.9277344,0.0517578-3.7597656,1.6376953-5.3007812,4.65625c0,8.0966797,0,16.1894531,0,24.2841797
		c-4.3681641,0.0957031-8.7373047,0.1630859-13.1044922,0.2050781c0-13.6826172,0-27.3662109,0-41.0498047
		c3.9179688-0.0380859,7.8359375-0.0966797,11.7548828-0.1777344c0,2.9873047,0,5.9746094,0,8.9609375
		c0.0644531,0,0.1279297-0.0009766,0.1923828-0.0039062c3.1806641-6.7138672,6.0712891-10.1582031,9.3476562-10.2558594
		c1.6386719-0.0478516,3.1796875,0.3847656,4.8183594,1.1962891
		C597.8144531,329.2041016,596.4326172,333.5195312,595.0517578,337.8330078z"/>
	<path fill="#0089C6" d="M612.6171875,348.5166016c1.0595703,5.0537109,4.4326172,7.7851562,9.7333984,7.4755859
		c3.0820312-0.1835938,5.6845703-1.5058594,8.671875-3.9277344c1.9912109,2.2402344,3.9833984,4.4716797,5.9736328,6.6982422
		c-4.7207031,4.5009766-10.3105469,6.9091797-16.5732422,7.2666016
		c-13.1064453,0.7363281-21.6826172-7.6083984-21.6826172-20.5087891c0-12.7285156,8.5761719-22.2246094,20.5253906-22.8867188
		c11.0820312-0.6162109,19.0800781,6.9189453,19.0800781,19.2578125c0,1.6708984,0,3.3408203,0,5.0097656
		C629.7695312,347.5683594,621.1933594,348.1005859,612.6171875,348.5166016z M618.9775391,332.6728516
		c-3.5664062,0.1953125-5.9755859,3.296875-6.3603516,8.6171875c4.2070312-0.2041016,8.4160156-0.4375,12.6230469-0.6972656
		C625.1445312,335.1992188,623.0234375,332.4472656,618.9775391,332.6728516z"/>
	<path fill="#0089C6" d="M669.4716797,360.4570312c0-7.7099609,0-15.4179688,0-23.1269531
		c0-5.6875-1.4462891-8.0146484-5.6855469-7.5458984c-2.6025391,0.2861328-4.9140625,2.1630859-6.5527344,5.5087891
		c0,8.8330078,0,17.6660156,0,26.5c-4.3681641,0.4423828-8.7373047,0.8466797-13.1044922,1.2158203
		c0-13.6826172,0-27.3662109,0-41.0498047c4.0458984-0.3427734,8.09375-0.7158203,12.140625-1.1191406
		c0,2.1513672,0,4.3037109,0,6.4560547c0.0644531-0.0068359,0.1279297-0.0126953,0.1933594-0.0195312
		c2.4091797-5.0595703,6.8417969-8.2128906,12.3339844-8.8515625c8.3828125-0.9785156,13.7792969,4.9101562,13.7792969,16.2861328
		c0,8.0302734,0,16.0605469,0,24.0908203C678.2080078,359.3935547,673.8388672,359.9443359,669.4716797,360.4570312z"/>
</g>
<g>
	<path fill="#F9B625" d="M269.1455078,139.4326172c-7.8735352-4.0107422-16.5151367-20.8374023-9.4160156-37.6572266
		c8.953125-21.1474609,18.9853516-28.2470703,27.6274414-28.8642578
		c6.4848633-0.4633789,21.3007812,4.6298828,24.2338867,24.0791016
		C316.0620117,128.0117188,281.9550781,145.9150391,269.1455078,139.4326172z M289.3598633,86.4951172
		c0,0-10.3383789-1.0810547-18.6689453,23.612793c-1.8549805,5.5556641,0,15.4365234,5.8623047,17.597168
		c6.3266602,2.3149414,16.0517578-6.484375,18.8320312-12.1938477c3.8583984-7.4091797,5.2431641-13.5839844,2.3125-21.9194336
		C295.6914062,87.8798828,289.3598633,86.4951172,289.3598633,86.4951172z"/>
	<g>
		<path fill="#F9B625" d="M303.0585938,64.484375c0.4672852-3.2998047,5.5786133-13.7114258,8.0419922-16.3828125l0,0
			c2.2241211-2.4121094,2.0712891-6.1699219-0.340332-8.3935547c-2.4121094-2.2241211-6.1694336-2.0712891-8.3935547,0.3398438l0,0
			c-4.1572266,4.5097656-10.2617188,17.0639648-11.0703125,22.7695312l0,0
			c-0.4609375,3.2475586,1.7993164,6.2543945,5.0478516,6.7143555
			C299.5913086,69.9926758,302.5981445,67.7324219,303.0585938,64.484375L303.0585938,64.484375z"/>
	</g>
	<g>
		<path fill="#F9B625" d="M247.8857422,101.6689453l-0.9633789,0.1948242
			c-6.4174805,1.3022461-8.4262695,1.5825195-11.9760742-0.5625l0,0c-2.8071289-1.6972656-6.4594727-0.796875-8.1557617,2.0112305
			c-1.6967773,2.8071289-0.7963867,6.4589844,2.0112305,8.1557617l0,0
			c7.6738281,4.6381836,13.6098633,3.4335938,20.4838867,2.0380859l0.9443359-0.190918l0,0
			c3.2158203-0.6474609,5.2983398-3.7788086,4.6508789-6.9956055
			C254.2333984,103.1040039,251.1020508,101.0214844,247.8857422,101.6689453L247.8857422,101.6689453z"/>
	</g>
	<g>
		<path fill="#F9B625" d="M256.5908203,65.512207l-0.7382812-0.6665039
			c-4.8588867-4.3847656-6.2768555-5.8325195-6.6630859-9.9584961l0,0
			c-0.3051758-3.2666016-3.2011719-5.6669922-6.4672852-5.3613281c-3.2661133,0.3051758-5.6665039,3.2006836-5.3608398,6.4672852
			l0,0c0.8339844,8.9213867,5.3286133,12.9775391,10.5327148,17.6723633l0.7236328,0.6538086l0,0
			c2.4316406,2.2016602,6.1879883,2.0151367,8.3901367-0.4169922
			C259.2094727,71.4707031,259.0224609,67.7143555,256.5908203,65.512207L256.5908203,65.512207z"/>
	</g>
	<g>
		<path fill="#F9B625" d="M263.4438477,144.2666016c-2.9550781,3.2124023-4.9262695,6.6738281-6.8334961,10.0195312
			c-1.4418945,2.53125-2.8037109,4.9223633-4.5195312,7.074707l0,0c-2.0458984,2.5649414-1.6245117,6.3022461,0.9404297,8.347168
			c2.5649414,2.0458984,6.3022461,1.6245117,8.347168-0.9404297l0,0c2.2929688-2.875,3.9516602-5.7861328,5.5546875-8.6000977
			c1.6513672-2.8989258,3.2114258-5.6367188,5.2548828-7.8583984l0,0c2.2207031-2.4145508,2.0639648-6.171875-0.3505859-8.3935547
			C269.4228516,141.6953125,265.6655273,141.8515625,263.4438477,144.2666016L263.4438477,144.2666016z"/>
	</g>
	<g>
		<path fill="#F9B625" d="M300.8300781,139.9311523c1.8046875,3.9746094,4.2226562,7.1386719,6.5610352,10.1987305
			c1.7680664,2.3144531,3.4384766,4.4995117,4.7495117,6.9194336l0,0c1.5629883,2.8842773,5.168457,3.9550781,8.0527344,2.3916016
			c2.8842773-1.5629883,3.9550781-5.168457,2.3916016-8.0527344l0,0c-1.753418-3.234375-3.7871094-5.8969727-5.7548828-8.4711914
			c-2.0239258-2.6489258-3.9360352-5.1513672-5.1821289-7.8974609l0,0c-1.3569336-2.9868164-4.8779297-4.309082-7.8647461-2.953125
			C300.7963867,133.4233398,299.4741211,136.9443359,300.8300781,139.9311523L300.8300781,139.9311523z"/>
	</g>
	<g>
		<path fill="#F9B625" d="M320.7138672,93.6586914c1.0673828-0.2900391,1.1772461-0.3120117,1.8950195-0.4526367
			l1.3754883-0.2763672c1.3637695-0.2788086,2.8569336-0.5537109,4.671875-0.5527344l0,0
			c3.2802734,0.0004883,5.940918-2.6582031,5.9414062-5.9389648c0.0009766-3.2797852-2.6577148-5.940918-5.9384766-5.9414062l0,0
			c-2.7861328-0.0009766-5.0424805,0.3823242-7.0668945,0.7958984c-0.0102539,0.0019531-1.2729492,0.2558594-1.2729492,0.2558594
			c-0.9467773,0.1860352-1.3139648,0.2631836-2.7246094,0.6469727l0,0c-3.1655273,0.8618164-5.0336914,4.1264648-4.171875,7.2915039
			C314.2841797,92.6523438,317.5478516,94.5205078,320.7138672,93.6586914L320.7138672,93.6586914z"/>
	</g>
</g>
<g>
	<path fill="#0089C6" d="M271.3046875,89.3833008c-3.3510742,1.2553711-8.6611328-0.4223633-17.7441406,2.5151367
		c-10.1958008,3.3505859-23.4702148,6.8447266-47.6381836,17.7416992
		c-0.1425781,3.0732422-0.9833984,10.7573242-2.2358398,18.0239258c-0.2802734,1.8154297-0.5600586,3.9086914-0.9780273,6.4228516
		c5.1669922-2.5141602,14.9477539-6.8417969,23.0507812-9.21875c10.8984375-2.793457,24.0332031-5.3071289,26.40625-3.4902344
		c3.0732422,1.9555664,1.6757812,8.6616211-3.3535156,10.4765625c-3.2167969,0.9760742-6.2875977,0.5600586-14.3896484,2.5141602
		c-7.5478516,2.0932617-20.8173828,6.9863281-33.5317383,15.2299805
		c-0.4179688,3.7709961-1.9560547,20.1196289-1.2578125,27.5249023c0.2768555,3.4960938,1.5380859,6.5668945-0.2802734,8.9404297
		c-2.515625,3.0756836-7.8222656,2.9384766-10.3359375,0.5600586c-1.4003906-1.3955078,0-21.3745117,0.1352539-33.9487305
		c-1.253418-0.840332-3.0717773-2.6586914-3.0717773-5.3125c0-3.3505859,0.8408203-4.0488281,4.0541992-6.8466797
		c0.1376953-2.512207,0.9780273-10.1958008,1.2553711-14.2504883c0.277832-3.7753906,0.5576172-7.4033203,0.8408203-11.1757812
		c-4.8950195,1.675293-14.3925781,4.8891602-15.6479492,4.6113281c-5.8725586-1.1206055-6.5703125-7.2666016-4.0541992-10.480957
		c1.1176758-1.675293,12.8544922-4.050293,20.1166992-6.8447266c0.2797852-2.6542969,0.9780273-7.402832,4.0537109-8.6601562
		c3.7739258-1.5400391,6.987793,0.8344727,8.3833008,4.0498047c7.9648438-2.9331055,36.6049805-13.2739258,42.8925781-14.9487305
		c7.9594727-2.2373047,22.0771484-5.4487305,24.5874023-3.9140625
		C277.3139648,81.9755859,276.6162109,87.4262695,271.3046875,89.3833008z"/>
	<path fill="#0089C6" d="M379.2836914,145.6147461c-0.2749023-1.6801758-0.5332031-3.2661133-0.5317383-4.5112305
		c0.0014648-0.7539062-0.5722656-1.3837891-1.3222656-1.4526367c-1.6269531-0.1508789-3.6430664,0.3251953-5.5927734,0.7856445
		c-1.090332,0.2578125-2.1186523,0.5004883-2.8994141,0.5849609c-0.2714844,0.0297852-0.5019531,0.1508789-0.7055664,0.3051758
		c-0.1401367-0.6601562-0.7001953-1.1645508-1.402832-1.1616211c-0.8046875,0.0029297-1.4541016,0.6572266-1.4511719,1.4628906
		c0.0107422,2.8012695,0.3481445,6.0546875,0.6757812,9.2001953c0.1972656,1.902832,0.3837891,3.7001953,0.4902344,5.3125
		c0.0493164,0.746582,0.6557617,1.3339844,1.4042969,1.3603516c0.4194336,0.0146484,1.0571289,0.0698242,1.7954102,0.1337891
		c3.5517578,0.309082,6.3891602,0.4819336,7.9057617-0.3212891c1.0292969-0.5478516,1.8398438-0.9799805,1.8383789-2.3623047
		c0-0.1762695,0-0.3598633,0.1000977-0.7231445C380.28125,151.7270508,379.7739258,148.6196289,379.2836914,145.6147461z
		 M376.4072266,146.0839844c0.0527344,0.3237305,0.1064453,0.6518555,0.1591797,0.9838867
		c-0.7602539,0.2080078-1.5449219,0.3696289-2.3481445,0.4921875c-0.2055664-1.2568359-0.3510742-2.4775391-0.3032227-3.6782227
		c0.0126953-0.324707-0.1030273-0.6147461-0.2734375-0.8642578c0.7895508-0.175293,1.5771484-0.3369141,2.2797852-0.4165039
		C376.0234375,143.6938477,376.2080078,144.8623047,376.4072266,146.0839844z M369.2519531,143.918457
		c0.5488281-0.0600586,1.1567383-0.1767578,1.7900391-0.3125c-0.0092773,0.0546875-0.0375977,0.1025391-0.0395508,0.1606445
		c-0.0546875,1.394043,0.1020508,2.7675781,0.3183594,4.1176758c-0.8735352,0.0639648-1.7485352,0.1166992-2.6166992,0.1611328
		c-0.1455078-1.4863281-0.277832-2.9614258-0.3496094-4.3496094
		C368.6176758,143.855957,368.9213867,143.9545898,369.2519531,143.918457z M369.347168,154.6772461
		c-0.0996094-1.1860352-0.2202148-2.4282227-0.3530273-3.7294922c0.9140625-0.046875,1.8681641-0.1083984,2.8339844-0.1845703
		c0.2587891,1.421875,0.4614258,2.7924805,0.46875,4.1445312c-0.8862305-0.0537109-1.7304688-0.1259766-2.300293-0.175293
		C369.762207,154.7119141,369.5595703,154.6958008,369.347168,154.6772461z M376.7792969,153.4506836
		c-0.1303711,0.4731445-0.1762695,0.8271484-0.1928711,1.1240234c-0.0820312,0.0449219-0.1772461,0.097168-0.3037109,0.1645508
		c-0.2104492,0.1113281-0.5961914,0.175293-1.0737305,0.2084961c-0.003418-1.5390625-0.2163086-3.0478516-0.4804688-4.5224609
		c0.7480469-0.1162109,1.484375-0.269043,2.2133789-0.4536133
		C377.0517578,151.2763672,377.0439453,152.4956055,376.7792969,153.4506836z"/>
	<path fill="#0089C6" d="M358.737793,149.6254883c-0.0141602-2.1469727-0.0292969-4.3676758,0.0004883-6.5395508
		c0.0107422-0.7729492-0.5844727-1.4194336-1.3564453-1.4731445c-2.390625-0.1660156-7.7827148,0.565918-10.9931641,1.1435547
		c-0.3520508-0.0581055-0.6923828,0.0068359-0.9853516,0.1860352c-0.1367188,0.0273438-0.2753906,0.0546875-0.3974609,0.0805664
		c-0.7875977,0.1665039-1.2905273,0.9399414-1.1235352,1.7270508c0.059082,0.2788086,0.2114258,0.5019531,0.3959961,0.6923828
		c-0.9155273,4.0703125-1.027832,10.3500977-1.027832,13.1469727c0,0.7871094,0.6245117,1.4316406,1.4106445,1.4560547
		c1.668457,0.0532227,3.9355469-0.1938477,6.3349609-0.4545898c2.3017578-0.25,4.6821289-0.5083008,6.1894531-0.4394531
		c0.3916016,0.0175781,0.7744141-0.1225586,1.0610352-0.3896484c0.2861328-0.2675781,0.453125-0.6386719,0.4628906-1.03125
		C358.7734375,155.0273438,358.7553711,152.28125,358.737793,149.6254883z M355.8232422,148.890625
		c-0.2260742-0.1445312-0.4790039-0.2490234-0.7675781-0.2490234c-0.5146484,0-1.1992188,0.1323242-2.1342773,0.3554688
		c0.0415039-1.3745117,0.0703125-2.7578125,0.0400391-4.1401367c-0.0004883-0.0361328-0.0195312-0.0654297-0.0224609-0.1005859
		c1.0517578-0.1147461,2.050293-0.2016602,2.878418-0.2363281
		C355.809082,145.9868164,355.8154297,147.4472656,355.8232422,148.890625z M350.046875,145.1240234
		c0.027832,1.5195312-0.0117188,3.0629883-0.0644531,4.59375c-1.0224609,0.2348633-2.0527344,0.4335938-2.4233398,0.3608398
		c0,0,0.0375977,0.0068359,0.0976562,0.034668c-0.3676758-0.168457-0.769043-0.1694336-1.1201172-0.0371094
		c0.1689453-1.7460938,0.3989258-3.3295898,0.7094727-4.5117188
		C348.081543,145.418457,349.0478516,145.2670898,350.046875,145.1240234z M346.3344727,152.6831055
		c0.0400391,0.0229492,0.0678711,0.0605469,0.1103516,0.0800781c0.7871094,0.3598633,1.9003906,0.2753906,3.4370117-0.0415039
		c-0.0371094,1.0932617-0.0678711,2.1943359-0.0693359,3.2939453c-0.0009766,0.2792969,0.0986328,0.5249023,0.2338867,0.7470703
		c-1.3652344,0.1464844-2.722168,0.2832031-3.8710938,0.3422852
		C346.1958008,155.6582031,346.2485352,154.1503906,346.3344727,152.6831055z M355.8110352,156.2456055
		c-0.9697266,0.0371094-2.0605469,0.1323242-3.1801758,0.2446289c0.0517578-0.1494141,0.0952148-0.3032227,0.0952148-0.4702148
		c0.0014648-1.3242188,0.0463867-2.6713867,0.0947266-3.9985352c0.9135742-0.2294922,1.8935547-0.4663086,2.2348633-0.4663086
		c0.2910156,0,0.5463867-0.1069336,0.7739258-0.2539062C355.8349609,152.9414062,355.8349609,154.5961914,355.8110352,156.2456055z"
		/>
	<path fill="#0089C6" d="M469.3964844,185.6123047c-3.1015625-1.8696289-7.1308594-0.8706055-9,2.2314453
		c0.0546875-0.0908203,0.0908203-0.1352539,0.0908203-0.1362305c-0.6933594,0.8520508-3.421875,2.2866211-4.5,2.4760742
		c-18.6152344,2.6196289-24.8945312-3.4516602-31.2109375-17.1757812
		c-6.6367188-14.4277344-3.2939453-30.5473633,7.9453125-38.3271484c7.0087891-4.8549805,13.6035156-4.340332,16.9101562-3.6010742
		c4.1523438,0.9277344,7.625,3.1982422,9.2919922,6.0732422c1.8164062,3.1333008,5.8271484,4.2006836,8.9609375,2.3847656
		c3.1318359-1.8154297,4.2001953-5.8276367,2.3837891-8.9604492c-3.5205078-6.0761719-10.0009766-10.5576172-17.7783203-12.2954102
		c-6.5703125-1.4682617-13.5146484-0.8291016-19.9082031,1.7045898c-0.3652344-0.2724609-0.7597656-0.5136719-1.1904297-0.7109375
		c-3.3369141-1.5263672-8.7851562-1.9018555-15.5625-2.2348633c-1.3583984-0.065918-2.640625-0.1293945-3.3818359-0.1972656
		c-4.5332031-0.4150391-9.1386719-0.7211914-13.5927734-1.0170898c-1.21875-0.0810547-2.4511719-0.1674805-3.6791992-0.2514648
		l0.3149414-0.0488281c0-10.8266602,1.9023438-21.0722656,0-23.121582
		c-2.9248047-3.0708008-8.6333008-2.9257812-11.7070312,2.4868164c-0.8681641,1.6137695-1.315918,12.8959961-1.5209961,19.5942383
		c-2.8920898-0.3051758-5.7680664-0.6474609-8.5834961-1.0976562c-4.9609375-0.7924805-8.730957-0.7661133-13.5668945-0.4541016
		c-3.1113281,0.2011719-5.4150391,0.8798828-7.8935547,1.6787109c-2.7573242,0.8891602-5.3813477,1.9555664-7.9267578,2.996582
		c0.3837891-4.1767578,0.8022461-8.2197266,1.0053711-12.6123047c0.1479492-4.9770508-1.1708984-14.7817383-2.3417969-16.3901367
		c-1.7548828-2.1933594-9.8046875-1.7568359-11.7075195,0.7333984c-1.1708984,2.3374023-1.1708984,3.949707-0.2905273,10.0966797
		c0.605957,4.2529297,0.2060547,16.2607422-0.1176758,22.9819336c-2.8798828,0.9799805-5.777832,2.0820312-8.6240234,3.5439453
		c-3.2207031,1.6542969-4.4902344,5.6074219-2.8364258,8.828125c1.6547852,3.2211914,5.6079102,4.4912109,8.8286133,2.8364258
		c0.0649414-0.0332031,0.1352539-0.0600586,0.2006836-0.0927734c0.4614258,0.3535156,0.934082,0.6279297,1.375,0.8291016
		c-0.2910156,3.8017578-0.2910156,3.3642578-0.8769531,9.9482422c-0.4389648,6.5883789-4.9790039,43.737793-2.3417969,46.2275391
		c4.5405273,3.21875,8.4882812,3.21875,10.8271484-0.4414062c1.3217773-2.7802734,0.1484375-15.6342773,1.7578125-29.6855469
		c1.315918-11.1240234,2.6318359-22.6845703,3.21875-26.78125l0.5483398-5.4248047
		c2.0463867-0.7426758,4.0493164-1.5249023,5.9790039-2.3149414c2.5395508-1.0400391,4.9375-2.0214844,7.3476562-2.7978516
		c2.0253906-0.6538086,3.1503906-0.9726562,4.7148438-1.0732422c4.0917969-0.2651367,6.8623047-0.2880859,10.6508789,0.3173828
		c3.5053711,0.5600586,7.0366211,0.96875,10.5644531,1.3217773v24.0219727c0,7.4633789,2.7807617,31.1767578,2.7807617,31.9086914
		c0,1.6069336,1.1728516,12.4370117,10.3911133,8.9272461c8.0473633-2.0507812,4.534668-8.1972656,2.7807617-10.8320312
		c-1.4648438-3.0688477-2.6357422-10.1035156-2.9287109-19.6118164c-0.2685547-8.6533203-0.0415039-26.0087891,0.1113281-33.3461914
		c0.8911133,0.0605469,1.7910156,0.1240234,2.6757812,0.1831055c4.375,0.2910156,8.8964844,0.5917969,13.2675781,0.9912109
		c1.015625,0.09375,2.3681641,0.1601562,3.9335938,0.2368164c0.7617188,0.0375977,1.8144531,0.0893555,2.9667969,0.1586914
		c-10.6806641,12.3818359-13.0830078,31.2456055-5.2890625,48.1918945
		c8.046875,17.4824219,18.7685547,28.3686523,44.9511719,24.6806641c3.9521484-0.5478516,10.9638672-3.8286133,13.8134766-8.5566406
		v-0.0004883C473.4960938,191.5112305,472.4980469,187.4814453,469.3964844,185.6123047z"/>
	<path fill="#0089C6" d="M373.1918945,192.4868164c-0.6079102-5.277832-0.7421875-7.8632812-0.8149414-11.6606445
		c-0.0668945-3.3212891,0.0424805-8.2216797,0.5488281-12.019043c0.1040039-0.7792969-0.2182617-1.5541992-0.8447266-2.0297852
		c-0.6254883-0.4746094-1.4580078-0.5776367-2.1811523-0.2680664c-3.5717773,1.527832-9.8598633,2.8261719-15.8266602,1.456543
		c-0.6445312-0.1479492-1.3217773,0.0043945-1.8417969,0.4135742c-0.519043,0.4091797-0.8251953,1.0322266-0.8325195,1.6928711
		c-0.0234375,2.1171875,0.034668,3.7148438,0.0893555,5.2597656c0.0712891,1.9838867,0.1386719,3.8574219,0.0009766,6.5332031
		c-0.1098633,2.1552734-0.2558594,3.347168-0.4248047,4.7280273c-0.1513672,1.2338867-0.3232422,2.6333008-0.4995117,4.9375
		c-0.0922852,1.203125,0.8085938,2.2539062,2.0117188,2.3457031c1.2036133,0.0927734,2.2539062-0.8085938,2.3461914-2.0117188
		c0.1689453-2.2055664,0.3339844-3.5522461,0.4794922-4.7397461c0.1723633-1.4023438,0.3349609-2.7275391,0.4516602-5.0361328
		c0.1479492-2.8652344,0.0776367-4.831543,0.0029297-6.9130859c-0.0283203-0.796875-0.0561523-1.6142578-0.074707-2.5024414
		c4.0317383,0.4794922,8.4838867,0.1162109,12.465332-0.9946289c-0.2412109,3.2470703-0.2919922,6.6875-0.2412109,9.2329102
		c0.0751953,3.9399414,0.2148438,6.6191406,0.8432617,12.0751953c0.1381836,1.1992188,1.222168,2.0595703,2.4213867,1.9213867
		C372.4697266,194.7700195,373.3300781,193.6855469,373.1918945,192.4868164z"/>
</g>
</svg>
